# xmcd
#
# Track frame offsets:
#	150
#	16400
#	26915
#	32457
#	46600
#	60195
#	70917
#	80782
#	94205
#	101875
#	112145
#	122472
#	137197
#	148985
#	162525
#	171275
#
# Disc length: 2530 seconds
#
# Revision: 0
# Processed by: cddbd v1.5.2PL0 Copyright (c) Steve Scherf et al.
# Submitted via: dBpowerAMP V4.0
#
DISCID=e309e010
DTITLE=Country Road - Country Road - CD2
DYEAR=1900
DGENRE=Country
TTITLE0=Lynn Anderson - The devil went down to Georgia
TTITLE1=Kenny Rogers - Ticket to nowhere
TTITLE2=Wilie Nelson - The ghost
TTITLE3=Freddy Fender - Wasted days
TTITLE4=Lynn Anderson - Talking in your sleep
TTITLE5=Patsy Cline - Stop look ans listen
TTITLE6=Guy Mitchel - Rock a Billy
TTITLE7=Kenny Rogers - Shine on Ruby Mountain
TTITLE8=Jim Reeves - Aklohama hills
TTITLE9=Frankie Laine - I believe
TTITLE10=Rick Nelson - Hello Mary Lou
TTITLE11=Tina Turner - Good Hearted woman
TTITLE12=Rick Nelson - Fools rush in
TTITLE13=Federation - Cowboy reggae
TTITLE14=Patsy Cline - Come on in and make yourself at home
TTITLE15=Federation - Clear road
EXTD=
EXTT0=
EXTT1=
EXTT2=
EXTT3=
EXTT4=
EXTT5=
EXTT6=
EXTT7=
EXTT8=
EXTT9=
EXTT10=
EXTT11=
EXTT12=
EXTT13=
EXTT14=
EXTT15=
PLAYORDER=
